<svg width="198" height="40" viewBox="0 0 198 40" fill="none" xmlns="http://www.w3.org/2000/svg">
<path d="M0 24.1337C0 31.8176 5.71617 39.523 15.4831 39.523C25.25 39.523 24.8417 36.5825 24.8417 36.5825L23.0796 32.4293C23.0796 32.4293 6.1352 38.042 6.1352 24.5415C6.1352 11.041 16.6328 12.1893 21.4141 13.2303L23.4879 9.18446C23.4879 9.18446 1.13894 2.123 0 24.1337Z" fill="white"/>
<path d="M57.8923 8.11157V38.8257H64.135V14.2823L76.3624 38.8257H85.0334V8.11157H79.1453V32.5799L66.2517 8.11157H57.8923Z" fill="white"/>
<path d="M115.119 8.11157H91.4265V13.4023H99.4313V38.8257H105.932V13.4023H112.379L115.119 8.11157Z" fill="white"/>
<path d="M126.572 25.733H137.511V20.2169H128.399L126.572 22.4277V13.3272H136.909L139.112 8.18669H126.572V8.11157H120.276V8.18669V13.3272V33.6852V35.6706V38.8257H136.909L139.112 33.6852H126.572V25.733Z" fill="white"/>
<path d="M37.832 25.733H48.7701V20.2169H39.6586L37.832 22.4277V13.3272H48.1684L50.3711 8.18669H37.832V8.11157H31.5356V8.18669V13.3272V33.6852V35.6706V38.8257H48.1684L50.3711 33.6852H37.832V25.733Z" fill="white"/>
<path d="M165.135 33.685L160.053 25.5826C163.136 24.7026 166.779 22.5026 166.779 17.0723C166.779 7.63914 157.7 8.11133 157.7 8.11133H146.525V38.8255H152.822V26.1728H154.036L161.836 38.8255H167.445L170.067 33.685H165.124H165.135ZM152.822 21.8908V13.3269H157.087C157.087 13.3269 161.6 13.1982 161.6 17.1367C161.6 21.0752 158.065 21.8801 157.216 21.8801H152.832L152.822 21.8908Z" fill="white"/>
<path d="M178.018 7.2558L185.625 0.441162H188.193V12.5573C188.193 12.5573 186.098 12.7934 186.098 16.3778C186.098 19.9621 188.193 20.1017 188.193 20.1017V32.7543H178.577V31.209L184.615 28.6548V6.3436L182.541 7.2558H178.018Z" fill="white"/>
<path d="M189.332 0.441162H192.448V28.6548L197.81 31.209V32.7543H189.332V19.4685C189.332 19.4685 187.215 18.9963 187.215 16.2919C187.215 13.5875 188.204 13.3621 189.332 12.8577V0.441162Z" fill="white"/>
</svg>
