<svg version="1.2" xmlns="http://www.w3.org/2000/svg" viewBox="0 0 81 84" width="81" height="84">
	<title>1st_word-svg</title>
	<style>
		.s0 { fill: #ffffff } 
	</style>
	<path class="s0" d="m20.4 47.4v-13.1l3.8-3.1v-30.7h-5.4l-18.8 15.8 1.9 3.4c3.9-0.4 11.2-2.3 13.4-3.2v56.9l-13.4 3.9v6.2h22.3v-33.1l-3.7-3z"/>
	<path class="s0" d="m48.1 77.3l-13.3-3.8v-73h-8.5v31.5l-3.8 3.1v11.5l3.8 3v33.9h21.8z"/>
	<path class="s0" d="m57.6 8.7c-0.1-1.3-1-2.1-2.8-2.1-1.7 0-2.5 0.7-2.5 1.6 0 1 0.9 1.6 2.7 2l1.7 0.3c4.2 0.9 6.1 3 6.1 6.1 0 3.8-3 6-8 6-5.1 0-8.4-2.2-8.4-7.1h4.9c0.1 1.8 1.4 2.8 3.4 2.8 1.8 0 2.8-0.7 2.8-1.7 0-1-0.8-1.6-3-2l-2-0.5c-3.5-0.7-5.6-2.5-5.6-5.5-0.1-3.8 3.3-6.3 7.9-6.3 4.8 0 7.7 2.5 7.8 6.4zm6-1.9v-4.2h17v4.2h-5.9v15.6h-5.2v-15.6z"/>
</svg>